<svg width="231" height="217" viewBox="0 0 231 217" fill="none" xmlns="http://www.w3.org/2000/svg">
<path d="M100.274 16H122.789L184.231 187.307C184.419 187.832 184.818 188.255 185.332 188.473L193.737 192.04C194.239 192.253 194.087 193 193.542 193L186.221 193H161.526H153.967C153.403 193 153.27 192.212 153.803 192.028L160.576 189.678C161.1 189.496 161.376 188.923 161.191 188.4L112.379 50.3288L105.842 26.2256L69.5263 133.107H82.1158H114.8C118.674 133.107 121.902 133.919 124.484 135.542C126.744 136.84 131.747 140.898 133.684 146.741H64.6842L49.2928 189.193C49.1244 189.657 49.3203 190.175 49.754 190.411L52.7786 192.061C53.2333 192.309 53.0572 193 52.5392 193L47.7368 193H36.8421L32.0812 193C31.514 193 31.3849 192.205 31.923 192.026L37.0772 190.308C37.6598 190.113 38.1208 189.662 38.3278 189.084L99.075 19.3449L97.5562 16H100.274Z" fill="black"/>
</svg>
